<?xml version="1.0" encoding="utf-8"?><!DOCTYPE svg PUBLIC "-//W3C//DTD SVG 1.1//EN" "http://www.w3.org/Graphics/SVG/1.1/DTD/svg11.dtd"><svg version="1.1" baseProfile="full" xmlns="http://www.w3.org/2000/svg" xmlns:xlink="http://www.w3.org/1999/xlink" xmlns:ev="http://www.w3.org/2001/xml-events"   height="19px"   width="21px" ><path fill="rgb( 148, 156, 167 )" d="M16.163,14.224 C16.163,14.224 11.074,14.224 11.074,14.224 C11.074,14.224 11.074,13.436 11.074,13.436 C11.074,13.436 16.164,13.436 16.164,13.436 C18.39,13.436 20.201,11.652 20.201,9.45699999999999 C20.201,7.49100000000001 18.712,5.79900000000001 16.736,5.52199999999999 C16.606,5.50399999999999 16.494,5.42400000000001 16.435,5.309 C15.676,3.81999999999999 14.028,2.98500000000001 12.274,3.38499999999999 C12.08,3.429 11.885,3.327 11.812,3.14500000000001 C11.243,1.71299999999999 9.86700000000002,0.78700000000001 8.31,0.78700000000001 C6.23500000000001,0.78700000000001 4.548,2.45099999999999 4.548,4.49600000000001 C4.548,4.66999999999999 4.56400000000002,4.858 4.59800000000001,5.071 C4.61500000000001,5.17500000000001 4.58800000000002,5.28200000000001 4.52499999999998,5.36699999999999 C4.46199999999999,5.45099999999999 4.36599999999999,5.50700000000001 4.26100000000002,5.52199999999999 C2.28699999999998,5.80099999999999 0.79899999999998,7.49199999999999 0.79899999999998,9.45699999999999 C0.79899999999998,11.651 2.61000000000001,13.436 4.83699999999999,13.436 C4.83699999999999,13.436 8.66000000000003,13.436 8.66000000000003,13.436 C8.66000000000003,13.436 8.66000000000003,14.223 8.66000000000003,14.223 C8.66000000000003,14.223 4.83699999999999,14.223 4.83699999999999,14.223 C2.17000000000002,14.223 0,12.085 0,9.45699999999999 C0,7.232 1.59199999999998,5.30099999999999 3.76299999999998,4.81299999999999 C3.75299999999999,4.70400000000001 3.74799999999999,4.59800000000001 3.74799999999999,4.49600000000001 C3.74799999999999,2.017 5.79500000000002,0 8.31,0 C10.087,0 11.667,0.99199999999999 12.422,2.55500000000001 C14.346,2.25200000000001 16.14,3.172 17.052,4.77500000000001 C19.316,5.191 21,7.16900000000001 21,9.45699999999999 C21,12.085 18.829,14.224 16.163,14.224 ZM7.77499999999998,16.067 C7.77499999999998,16.067 9.37099999999998,17.64 9.37099999999998,17.64 C9.37099999999998,17.64 9.37099999999998,6.72900000000001 9.37099999999998,6.72900000000001 C9.37099999999998,6.50700000000001 9.553,6.327 9.779,6.327 C10.004,6.327 10.187,6.50700000000001 10.187,6.72900000000001 C10.187,6.72900000000001 10.187,17.627 10.187,17.627 C10.187,17.627 11.77,16.067 11.77,16.067 C11.928,15.91 12.186,15.91 12.346,16.067 C12.506,16.224 12.506,16.479 12.346,16.637 C12.346,16.637 10.067,18.882 10.067,18.882 C9.98899999999998,18.96 9.88499999999999,19 9.77699999999999,19 C9.77699999999999,19 9.77499999999998,18.999 9.77199999999999,18.999 C9.77199999999999,18.999 9.76400000000001,19 9.76400000000001,19 C9.661,19 9.55599999999998,18.961 9.476,18.882 C9.476,18.882 7.19799999999998,16.637 7.19799999999998,16.637 C7.03800000000001,16.479 7.03800000000001,16.224 7.19799999999998,16.067 C7.358,15.91 7.61599999999999,15.91 7.77499999999998,16.067 Z "/></svg>