<?xml version="1.0" encoding="utf-8"?><!DOCTYPE svg PUBLIC "-//W3C//DTD SVG 1.1//EN" "http://www.w3.org/Graphics/SVG/1.1/DTD/svg11.dtd"><svg version="1.1" baseProfile="full" xmlns="http://www.w3.org/2000/svg" xmlns:xlink="http://www.w3.org/1999/xlink" xmlns:ev="http://www.w3.org/2001/xml-events"   height="17px"   width="18px" ><path fill="rgb( 148, 156, 167 )" d="M16.548,3.51900000000001 C15.087,1.614 12.659,0.35499999999999 9.88600000000002,0.06299999999999 C9.49000000000001,0.02099999999999 9.089,0 8.69400000000002,0 C4.31799999999998,0 0.697,2.577 0.27100000000002,5.994 C0,8.17099999999999 1.06999999999999,10.366 3.13999999999999,11.894 C3.42599999999999,13.34 3.37099999999998,15.226 1.63,16.292 C1.47399999999999,16.388 1.40899999999999,16.588 1.47699999999998,16.761 C1.53399999999999,16.908 1.67000000000002,17 1.81700000000001,17 C1.84500000000003,17 1.87200000000001,16.997 1.89999999999998,16.99 C2.07400000000001,16.949 6.03300000000002,15.977 7.38900000000001,13.675 C7.66199999999998,13.724 7.93200000000002,13.763 8.19600000000003,13.79 C8.59199999999998,13.833 8.99299999999999,13.853 9.387,13.853 C13.764,13.853 17.385,11.276 17.811,7.85900000000001 C18,6.34399999999999 17.563,4.84299999999999 16.548,3.51900000000001 ZM17.082,7.76300000000001 C16.704,10.802 13.396,13.094 9.387,13.093 C9.017,13.093 8.642,13.074 8.26999999999998,13.035 C7.94600000000003,13.001 7.608,12.948 7.267,12.879 C7.10399999999998,12.845 6.94099999999997,12.928 6.86799999999999,13.081 C6.24099999999999,14.375 4.54599999999999,15.25 3.27300000000002,15.748 C3.99200000000002,14.682 4.18900000000002,13.256 3.827,11.585 C3.80700000000002,11.492 3.75299999999999,11.41 3.67700000000002,11.355 C1.75999999999999,9.99000000000001 0.75999999999999,8.02199999999999 1,6.09100000000001 C1.37799999999999,3.05199999999999 4.68700000000001,0.75999999999999 8.69400000000002,0.75999999999999 C9.06400000000002,0.75999999999999 9.44,0.78100000000001 9.81200000000001,0.81899999999999 C12.351,1.08600000000001 14.655,2.27199999999999 15.972,3.99100000000001 C16.861,5.15100000000001 17.245,6.45500000000001 17.082,7.76300000000001 Z "/></svg>